<!DOCTYPE svg PUBLIC "-//W3C//DTD SVG 1.1//EN" "http://www.w3.org/Graphics/SVG/1.1/DTD/svg11.dtd">
<svg width="1325px" height="840px" version="1.1"
  xmlns="http://www.w3.org/2000/svg" xmlns:xlink="http://www.w3.org/1999/xlink">
 <g id="graph" transform="translate(130 20) scale(2.5 -2.5) translate(-360 -240)">
  <path id="v" d="M 360 -54
    h 5 m -5 6 h 5 m -5 6 h 5 m -5 6 h 5 m -5 6 h 5 m -5 6 h 5 m -5 6 h 5 m -5 6 h 5 m -5 6 h 5 m -5 6 h 10 m -10 6
    h 5 m -5 6 h 5 m -5 6 h 5 m -5 6 h 5 m -5 6 h 5 m -5 6 h 5 m -5 6 h 5 m -5 6 h 5 m -5 6 h 5 m -5 6 h 10 m -10 6
    h 5 m -5 6 h 5 m -5 6 h 5 m -5 6 h 5 m -5 6 h 5 m -5 6 h 5 m -5 6 h 5 m -5 6 h 5 m -5 6 h 5 m -5 6 h 10 m -10 6
    h 5 m -5 6 h 5 m -5 6 h 5 m -5 6 h 5 m -5 6 h 5 m -5 6 h 5 m -5 6 h 5 m -5 6 h 5 m -5 6 h 5 m -5 6 h 10 m -10 6
    h 5 m -5 6 h 5 m -5 6 h 5 m -5 6 h 5 m -5 6 h 5 m -5 6 h 5 m -5 6 h 5 m -5 6 h 5 m -5 6 h 5" fill="none" stroke="black" stroke-width="1.5" />
  <use xlink:href="#v" transform="scale(-1 1) translate(-1190 0)" />
  <path id="h" d="M 370 -60                                                 v 5 m 10 -5 v 5 m 10 -5 v 5 m 10 -5 v 10 m 10 -10
    v 5 m 10 -5 v 5 m 10 -5 v 5 m 10 -5 v 5 m 10 -5 v 5 m 10 -5 v 5 m 10 -5 v 5 m 10 -5 v 5 m 10 -5 v 5 m 10 -5 v 10 m 10 -10
    v 5 m 10 -5 v 5 m 10 -5 v 5 m 10 -5 v 5 m 10 -5 v 5 m 10 -5 v 5 m 10 -5 v 5 m 10 -5 v 5 m 10 -5 v 5 m 10 -5 v 10 m 10 -10
    v 5 m 10 -5 v 5 m 10 -5 v 5 m 10 -5 v 5 m 10 -5 v 5 m 10 -5 v 5 m 10 -5 v 5 m 10 -5 v 5 m 10 -5 v 5 m 10 -5 v 10 m 10 -10
    v 5 m 10 -5 v 5 m 10 -5 v 5 m 10 -5 v 5 m 10 -5 v 5 m 10 -5 v 5 m 10 -5 v 5 m 10 -5 v 5 m 10 -5 v 5 m 10 -5 v 10 m 10 -10
    v 5 m 10 -5 v 5" fill="none" stroke="black" stroke-width="1.5" />
  <use xlink:href="#h" transform="scale(1 -1) translate(0 -180)" />
  <path d="M 360 0 L 830 0" fill="none" stroke="black" stroke-width="1.5" />
  <path d="M 360 0.00211858 L 361 0.00236058 L 362 0.00262959 L 363 0.00292946 L 364 0.00326407 L 365 0.00363725 L 366 0.00405535 L 367 0.00452454 L 368 0.00504848 L 369 0.00563085 L 370 0.00627531 L 371 0.00698116 L 372 0.00776367 L 373 0.00865038 L 374 0.00966892 L 375 0.0108467 L 376 0.0122323 L 377 0.0138173 L 378 0.0155441 L 379 0.017355 L 380 0.0191928 L 381 0.0210143 L 382 0.0229305 L 383 0.0251145 L 384 0.0277387 L 385 0.0309764 L 386 0.0349844 L 387 0.039737 L 388 0.0451276 L 389 0.0510511 L 390 0.0574018 L 391 0.0640518 L 392 0.0712367 L 393 0.0793992 L 394 0.0889822 L 395 0.100428 L 396 0.114291 L 397 0.130292 L 398 0.147622 L 399 0.165473 L 400 0.183038 L 401 0.19973 L 402 0.216592 L 403 0.235257 L 404 0.257369 L 405 0.284561 L 406 0.317753 L 407 0.356473 L 408 0.400269 L 409 0.448697 L 410 0.5013 L 411 0.5574 L 412 0.617283 L 413 0.681968 L 414 0.752472 L 415 0.829802 L 416 0.913714 L 417 1.00194 L 418 1.09246 L 419 1.18325 L 420 1.27233 L 421 1.35865 L 422 1.4389 L 423 1.5075 L 424 1.55893 L 425 1.58761 L 426 1.59054 L 427 1.56673 L 428 1.51388 L 429 1.42959 L 430 1.31152 L 431 1.15705 L 432 0.967048 L 433 0.744509 L 434 0.492435 L 435 0.213819 L 435.8 0 L 436 -0.0904072 L 437 -0.421291 L 438 -0.77884 L 439 -1.16312 L 440 -1.57413 L 441 -2.01132 L 442 -2.47517 L 443 -2.9673 L 444 -3.4894 L 445 -4.04307 L 446 -4.6287 L 447 -5.24539 L 448 -5.89298 L 449 -6.5713 L 450 -7.28012 L 451 -8.01833 L 452 -8.78406 L 453 -9.57605 L 454 -10.3931 L 455 -11.2339 L 456 -12.0973 L 457 -12.9786 L 458 -13.8707 L 459 -14.7664 L 460 -15.6587 L 461 -16.5442 L 462 -17.4203 L 463 -18.2815 L 464 -19.1222 L 465 -19.937 L 466 -20.721 L 467 -21.4758 L 468 -22.2056 L 469 -22.9146 L 470 -23.607 L 471 -24.2846 L 472 -24.9459 L 473 -25.5901 L 474 -26.2164 L 475 -26.8242 L 476 -27.4139 L 477 -27.9875 L 478 -28.5465 L 479 -29.092 L 480 -29.6254 L 481 -30.149 L 482 -30.6656 L 483 -31.1771 L 484 -31.6854 L 485 -32.1924 L 486 -32.6985 L 487 -33.21 L 488 -33.7377 L 489 -34.2926 L 490 -34.8856 L 491 -35.5243 L 492 -36.2069 L 493 -36.9302 L 494 -37.6911 L 495 -38.4863 L 496 -39.3098 L 497 -40.1653 L 498 -41.0641 L 499 -42.0175 L 500 -43.0368 L 501 -44.1298 L 502 -45.2758 L 503 -46.4439 L 504 -47.6032 L 505 -48.7224 L 506 -49.7822 L 507 -50.7826 L 508 -51.7219 L 509 -52.5987 L 510 -53.4115 L 511 -54.1541 L 512 -54.8123 L 513 -55.3724 L 514 -55.8208 L 515 -56.1437 L 516 -56.3344 L 517 -56.387 L 518 -56.2891 L 519 -56.0285 L 520 -55.5928 L 521 -54.9731 L 522 -54.1765 L 523 -53.214 L 524 -52.0971 L 525 -50.8369 L 526 -49.4368 L 527 -47.9007 L 528 -46.2412 L 529 -44.4705 L 530 -42.6011 L 531 -40.6416 L 532 -38.5919 L 533 -36.4509 L 534 -34.2181 L 535 -31.8924 L 536 -29.4761 L 537 -26.9712 L 538 -24.3765 L 539 -21.6908 L 540 -18.9129 L 541 -16.0425 L 542 -13.0814 L 543 -10.0317 L 544 -6.89514 L 545 -3.67382 L 546 -0.369033 L 546.1 0 L 547 3.01897 L 548 6.48994 L 549 10.0436 L 550 13.6797 L 551 17.4006 L 552 21.2029 L 553 25.085 L 554 29.0454 L 555 33.083 L 556 37.1978 L 557 41.3871 L 558 45.6457 L 559 49.969 L 560 54.3524 L 561 58.7929 L 562 63.2843 L 563 67.8239 L 564 72.4088 L 565 77.0363 L 566 81.7024 L 567 86.4004 L 568 91.1233 L 569 95.8642 L 570 100.616 L 571 105.372 L 572 110.126 L 573 114.87 L 574 119.597 L 575 124.302 L 576 128.978 L 577 133.614 L 578 138.198 L 579 142.718 L 580 147.161 L 581 151.518 L 582 155.78 L 583 159.941 L 584 163.993 L 585 167.928 L 586 171.734 L 587 175.404 L 588 178.935 L 589 182.323 L 590 185.564 L 591 188.661 L 592 191.594 L 593 194.334 L 594 196.851 L 595 199.114 L 596 201.1 L 597 202.818 L 598 204.292 L 599 205.541 L 600 206.588 L 601 207.445 L 602 208.094 L 603 208.509 L 604 208.667 L 605 208.541 L 606 208.118 L 607 207.415 L 608 206.451 L 609 205.25 L 610 203.832 L 611 202.206 L 612 200.369 L 613 198.322 L 614 196.066 L 615 193.6 L 616 190.937 L 617 188.079 L 618 185.019 L 619 181.747 L 620 178.255 L 621 174.544 L 622 170.64 L 623 166.575 L 624 162.384 L 625 158.098 L 626 153.731 L 627 149.303 L 628 144.855 L 629 140.428 L 630 136.064 L 631 131.795 L 632 127.613 L 633 123.499 L 634 119.434 L 635 115.401 L 636 111.396 L 637 107.433 L 638 103.511 L 639 99.6321 L 640 95.7981 L 641 92.0093 L 642 88.2708 L 643 84.59 L 644 80.9748 L 645 77.4328 L 646 73.9671 L 647 70.5816 L 648 67.2852 L 649 64.0867 L 650 60.995 L 651 58.017 L 652 55.1492 L 653 52.3853 L 654 49.7187 L 655 47.143 L 656 44.6562 L 657 42.2596 L 658 39.9516 L 659 37.7309 L 660 35.596 L 661 33.5455 L 662 31.579 L 663 29.6969 L 664 27.8995 L 665 26.187 L 666 24.5573 L 667 23.0104 L 668 21.5495 L 669 20.1776 L 670 18.8981 L 671 17.7113 L 672 16.6112 L 673 15.5906 L 674 14.6426 L 675 13.7601 L 676 12.9409 L 677 12.1797 L 678 11.4644 L 679 10.7834 L 680 10.1246 L 681 9.47929 L 682 8.85051 L 683 8.24453 L 684 7.66754 L 685 7.12577 L 686 6.62038 L 687 6.14778 L 688 5.70711 L 689 5.29746 L 690 4.91794 L 691 4.56807 L 692 4.24662 L 693 3.95153 L 694 3.68077 L 695 3.43229 L 696 3.20499 L 697 2.99718 L 698 2.80597 L 699 2.62842 L 700 2.46156 L 701 2.3034 L 702 2.15377 L 703 2.01282 L 704 1.88073 L 705 1.75765 L 706 1.64312 L 707 1.53615 L 708 1.43615 L 709 1.34256 L 710 1.25478 L 711 1.17232 L 712 1.09491 L 713 1.0223 L 714 0.95425 L 715 0.890529 L 716 0.830818 L 717 0.774873 L 718 0.722559 L 719 0.673744 L 720 0.628291 L 721 0.586038 L 722 0.546744 L 723 0.510153 L 724 0.476012 L 725 0.444064 L 726 0.414109 L 727 0.386042 L 728 0.35975 L 729 0.335121 L 730 0.312045 L 731 0.29039 L 732 0.270071 L 733 0.251043 L 734 0.233265 L 735 0.216691 L 736 0.201259 L 737 0.186891 L 738 0.173524 L 739 0.161096 L 740 0.149542 L 741 0.138801 L 742 0.12883 L 743 0.11959 L 744 0.111045 L 745 0.103155 L 746 0.0958807 L 747 0.0891755 L 748 0.0829929 L 749 0.0772867 L 750 0.0720104 L 751 0.0671254 L 752 0.0626025 L 753 0.0584098 L 754 0.0545154 L 755 0.0508873 L 756 0.0474948 L 757 0.0443212 L 758 0.0413556 L 759 0.0385872 L 760 0.0360052 L 761 0.033594 L 762 0.0313399 L 763 0.0292353 L 764 0.0272724 L 765 0.0254437 L 766 0.0237401 L 767 0.0221523 L 768 0.0206722 L 769 0.0192917 L 770 0.0180026 L 771 0.0167972 L 772 0.0156704 L 773 0.0146183 L 774 0.0136367 L 775 0.0127218 L 776 0.0118688 L 777 0.0110733 L 778 0.0103316 L 779 0.00964014 L 780 0.0089953 L 781 0.00839358 L 782 0.00783206 L 783 0.00730796 L 784 0.00681851 L 785 0.00636092 L 786 0.00593238 L 787 0.00553118 L 788 0.00515616 L 789 0.00480617 L 790 0.00448007 L 791 0.00417634 L 792 0.00389336 L 793 0.00362974 L 794 0.00338413 L 795 0.00315513 L 796 0.00294149 L 797 0.00274223 L 798 0.00255649 L 799 0.00238339 L 800 0.00222206 L 801 0.0020716 L 802 0.00193126 L 803 0.00180044 L 804 0.00167853 L 805 0.00156491 L 806 0.00145894 L 807 0.00136011 L 808 0.00126799 L 809 0.00118214 L 810 0.00110212 L 811 0.00102749 L 812 0.000957875 L 813 0.000892983 L 814 0.000832508 L 815 0.000776152 L 816 0.000723596 L 817 0.000674583 L 818 0.000628896 L 819 0.000586319 L 820 0.000546637 L 821 0.000509624 L 822 0.000475101 L 823 0.000442918 L 824 0.000412925 L 825 0.000384973 L 826 0.000358905 L 827 0.000334593 L 828 0.00031193 L 829 0.000290809 L 830 0.000271125"
    fill="none" stroke="red" stroke-width="1.5" />
  <path d="M 360 -0.000800247 L 361 -0.00089563 L 362 -0.00100244 L 363 -0.00112217 L 364 -0.00125628 L 365 -0.00140626 L 366 -0.00157537 L 367 -0.00176641 L 368 -0.00198017 L 369 -0.00221741 L 370 -0.00247892 L 371 -0.00276241 L 372 -0.00307665 L 373 -0.003439 L 374 -0.00386685 L 375 -0.00437757 L 376 -0.00499752 L 377 -0.00571827 L 378 -0.00650491 L 379 -0.00732259 L 380 -0.00813647 L 381 -0.00892191 L 382 -0.00973452 L 383 -0.0106599 L 384 -0.0117833 L 385 -0.0131904 L 386 -0.01496 L 387 -0.0170777 L 388 -0.0194875 L 389 -0.0221339 L 390 -0.0249613 L 391 -0.0279061 L 392 -0.0310913 L 393 -0.0347417 L 394 -0.0390821 L 395 -0.0443374 L 396 -0.0507857 L 397 -0.0582978 L 398 -0.0664865 L 399 -0.0749646 L 400 -0.0833457 L 401 -0.0913667 L 402 -0.0995518 L 403 -0.108692 L 404 -0.119581 L 405 -0.13301 L 406 -0.149418 L 407 -0.168644 L 408 -0.190579 L 409 -0.215117 L 410 -0.242148 L 411 -0.271392 L 412 -0.302982 L 413 -0.337431 L 414 -0.375255 L 415 -0.416966 L 416 -0.462359 L 417 -0.510295 L 418 -0.559885 L 419 -0.610237 L 420 -0.66047 L 421 -0.710171 L 422 -0.757313 L 423 -0.79856 L 424 -0.830576 L 425 -0.850024 L 426 -0.854968 L 427 -0.844946 L 428 -0.818874 L 429 -0.775653 L 430 -0.714193 L 431 -0.63338 L 432 -0.53324 L 433 -0.41441 L 434 -0.277528 L 435 -0.123228 L 435.8 0 L 436 0.048706 L 437 0.238037 L 438 0.443454 L 439 0.663662 L 440 0.897348 L 441 1.1436 L 442 1.40319 L 443 1.67734 L 444 1.96729 L 445 2.27425 L 446 2.59881 L 447 2.94055 L 448 3.29919 L 449 3.67447 L 450 4.06611 L 451 4.47374 L 452 4.89764 L 453 5.33851 L 454 5.79707 L 455 6.27399 L 456 6.7702 L 457 7.28452 L 458 7.81451 L 459 8.35774 L 460 8.91177 L 461 9.47522 L 462 10.0497 L 463 10.6371 L 464 11.2395 L 465 11.8589 L 466 12.4959 L 467 13.1507 L 468 13.8238 L 469 14.5162 L 470 15.2286 L 471 15.9615 L 472 16.7148 L 473 17.4889 L 474 18.2841 L 475 19.1006 L 476 19.9407 L 477 20.8037 L 478 21.6851 L 479 22.5806 L 480 23.4858 L 481 24.3989 L 482 25.3263 L 483 26.2766 L 484 27.2581 L 485 28.2794 L 486 29.3448 L 487 30.4572 L 488 31.623 L 489 32.8483 L 490 34.1396 L 491 35.5037 L 492 36.9425 L 493 38.4546 L 494 40.0386 L 495 41.6928 L 496 43.4125 L 497 45.2061 L 498 47.0922 L 499 49.0895 L 500 51.2166 L 501 53.4866 L 502 55.8822 L 503 58.377 L 504 60.9447 L 505 63.5587 L 506 66.2013 L 507 68.8765 L 508 71.5912 L 509 74.3521 L 510 77.166 L 511 80.0307 L 512 82.9255 L 513 85.829 L 514 88.7203 L 515 91.5782 L 516 94.3948 L 517 97.1564 L 518 99.8332 L 519 102.395 L 520 104.812 L 521 107.062 L 522 109.153 L 523 111.107 L 524 112.943 L 525 114.681 L 526 116.33 L 527 117.88 L 528 119.328 L 529 120.67 L 530 121.902 L 531 123.023 L 532 124.037 L 533 124.951 L 534 125.768 L 535 126.495 L 536 127.133 L 537 127.682 L 538 128.143 L 539 128.515 L 540 128.798 L 541 128.992 L 542 129.101 L 543 129.125 L 544 129.066 L 545 128.925 L 546 128.703 L 547 128.401 L 548 128.024 L 549 127.578 L 550 127.066 L 551 126.487 L 552 125.841 L 553 125.128 L 554 124.349 L 555 123.503 L 556 122.589 L 557 121.604 L 558 120.549 L 559 119.421 L 560 118.218 L 561 116.938 L 562 115.586 L 563 114.166 L 564 112.681 L 565 111.134 L 566 109.527 L 567 107.862 L 568 106.139 L 569 104.358 L 570 102.521 L 571 100.628 L 572 98.6843 L 573 96.6919 L 574 94.6547 L 575 92.5765 L 576 90.4607 L 577 88.3097 L 578 86.125 L 579 83.9085 L 580 81.6619 L 581 79.3875 L 582 77.0903 L 583 74.776 L 584 72.4501 L 585 70.1183 L 586 67.7851 L 587 65.4546 L 588 63.1312 L 589 60.8198 L 590 58.5247 L 591 56.2494 L 592 53.9984 L 593 51.7781 L 594 49.5949 L 595 47.4552 L 596 45.3651 L 597 43.3243 L 598 41.3305 L 599 39.3813 L 600 37.4743 L 601 35.6086 L 602 33.7887 L 603 32.0199 L 604 30.3075 L 605 28.6568 L 606 27.0707 L 607 25.5478 L 608 24.0866 L 609 22.6856 L 610 21.3434 L 611 20.0596 L 612 18.8338 L 613 17.6651 L 614 16.5522 L 615 15.4941 L 616 14.4901 L 617 13.5384 L 618 12.636 L 619 11.7802 L 620 10.968 L 621 10.1974 L 622 9.46744 L 623 8.77772 L 624 8.12763 L 625 7.51662 L 626 6.94358 L 627 6.4067 L 628 5.90437 L 629 5.43497 L 630 4.99691 L 631 4.58884 L 632 4.20932 L 633 3.85656 L 634 3.52878 L 635 3.22418 L 636 2.94127 L 637 2.67899 L 638 2.43623 L 639 2.21185 L 640 2.00474 L 641 1.81365 L 642 1.63769 L 643 1.47636 L 644 1.32913 L 645 1.19545 L 646 1.07472 L 647 0.965843 L 648 0.867611 L 649 0.778822 L 650 0.698258 L 651 0.624998 L 652 0.558593 L 653 0.498574 L 654 0.44448 L 655 0.395852 L 656 0.352108 L 657 0.312802 L 658 0.277653 L 659 0.246387 L 660 0.218733 L 661 0.194392 L 662 0.172987 L 663 0.154098 L 664 0.137314 L 665 0.122229 L 666 0.10848 L 667 0.0959814 L 668 0.0847132 L 669 0.0746529 L 670 0.0657832 L 671 0.0580075 L 672 0.0511561 L 673 0.0450972 L 674 0.0397007 L 675 0.034838 L 676 0.0304028 L 677 0.0263646 L 678 0.0227016 L 679 0.0193925 L 680 0.0164172 L 681 0.0137221 L 682 0.0112839 L 683 0.00912404 L 684 0.00726025 L 685 0.00571433 L 686 0.00449035 L 687 0.00354024 L 688 0.00280541 L 689 0.00222977 L 690 0.001756 L 691 0.00134949 L 692 0.00100983 L 693 0.000730934 L 694 0.000506359 L 695 0.000329253 L 696 0.000185259 L 697 0.000065325 L 698 0.0000278003 L 699 0.00000827689 L 700 0 L 701 -0.0000723601 L 702 -0.0000677134 L 703 -0.0000632824 L 704 -0.0000591068 L 705 -0.0000552684 L 706 -0.0000516488 L 707 -0.0000482627 L 708 -0.0000451352 L 709 -0.0000422242 L 710 -0.00003942 L 711 -0.0000368686 L 712 -0.0000344379 L 713 -0.000032115 L 714 -0.0000299838 L 715 -0.0000280061 L 716 -0.0000261324 L 717 -0.0000243582 L 718 -0.0000226953 L 719 -0.0000211556 L 720 -0.0000197512 L 721 -0.0000184105 L 722 -0.0000171666 L 723 -0.0000160246 L 724 -0.0000149349 L 725 -0.0000139572 L 726 -0.0000130033 L 727 -0.0000121114 L 728 -0.0000113213 L 729 -0.0000105237 L 730 -0.00000978853 L 731 -0.00000913969 L 732 -0.00000847389 L 733 -0.00000787118 L 734 -0.00000735691 L 735 -0.00000680873 L 736 -0.00000632403 L 737 -0.00000587518 L 738 -0.00000545147 L 739 -0.00000506278 L 740 -0.00000470136 L 741 -0.00000436286 L 742 -0.00000404693 L 743 -0.00000375935 L 744 -0.00000348823 L 745 -0.00000324229 L 746 -0.00000301205 L 747 -0.0000028034 L 748 -0.00000260706 L 749 -0.00000243145 L 750 -0.00000226436 L 751 -0.00000210943 L 752 -0.00000197023 L 753 -0.00000183717 L 754 -0.0000017149 L 755 -0.00000159957 L 756 -0.00000149096 L 757 -0.0000013943 L 758 -0.00000129923 L 759 -0.00000121338 L 760 -0.00000112945 L 761 -0.00000105409 L 762 -0.000000987154 L 763 -0.00000091843 L 764 -0.000000855631 L 765 -0.000000797048 L 766 -0.000000747822 L 767 -0.000000698864 L 768 -0.000000649918 L 769 -0.000000606201 L 770 -0.000000565817 L 771 -0.000000528019 L 772 -0.000000492794 L 773 -0.000000459238 L 774 -0.000000428761 L 775 -0.000000399618 L 776 -0.000000373068 L 777 -0.000000347856 L 778 -0.000000324859 L 779 -0.000000302893 L 780 -0.000000282542 L 781 -0.000000264059 L 782 -0.000000245904 L 783 -0.000000229703 L 784 -0.000000214343 L 785 -0.000000199809 L 786 -0.000000186451 L 787 -0.000000173628 L 788 -0.000000162069 L 789 -0.000000151264 L 790 -0.000000140546 L 791 -0.000000131065 L 792 -0.000000122483 L 793 -0.000000114077 L 794 -0.000000106462 L 795 -0.0000000990655 L 796 -0.0000000927249 L 797 -0.0000000863282 L 798 -0.0000000805925 L 799 -0.0000000747455 L 800 -0.0000000698073 L 801 -0.0000000651219 L 802 -0.0000000607216 L 803 -0.0000000566009 L 804 -0.0000000527417 L 805 -0.000000049168 L 806 -0.0000000458397 L 807 -0.0000000427758 L 808 -0.0000000398426 L 809 -0.0000000371422 L 810 -0.0000000346377 L 811 -0.0000000323127 L 812 -0.0000000301202 L 813 -0.0000000280871 L 814 -0.0000000261562 L 815 -0.0000000244048 L 816 -0.0000000227204 L 817 -0.0000000211778 L 818 -0.0000000197649 L 819 -0.0000000184148 L 820 -0.0000000171703 L 821 -0.0000000160609 L 822 -0.0000000149581 L 823 -0.0000000139827 L 824 -0.0000000129525 L 825 -0.0000000120851 L 826 -0.0000000112106 L 827 -0.0000000104548 L 828 -0.0000000098222 L 829 -0.00000000920798 L 830 -0.00000000850728"
    fill="none" stroke="lime" stroke-width="1.5" />
  <path d="M 360 0.0650151 L 361 0.0730364 L 362 0.0820755 L 363 0.0922516 L 364 0.103684 L 365 0.116493 L 366 0.130929 L 367 0.147249 L 368 0.165576 L 369 0.186032 L 370 0.208742 L 371 0.233604 L 372 0.261283 L 373 0.293049 L 374 0.330175 L 375 0.373934 L 376 0.426412 L 377 0.487088 L 378 0.553319 L 379 0.622462 L 380 0.691874 L 381 0.759797 L 382 0.830837 L 383 0.911895 L 384 1.00987 L 385 1.13167 L 386 1.28354 L 387 1.46483 L 388 1.67209 L 389 1.90186 L 390 2.15071 L 391 2.41473 L 392 2.70344 L 393 3.03348 L 394 3.4215 L 395 3.88413 L 396 4.4449 L 397 5.09558 L 398 5.80527 L 399 6.54307 L 400 7.27806 L 401 7.98992 L 402 8.7274 L 403 9.56323 L 404 10.5701 L 405 11.8208 L 406 13.3669 L 407 15.1999 L 408 17.3025 L 409 19.6573 L 410 22.247 L 411 25.0673 L 412 28.1693 L 413 31.6193 L 414 35.4834 L 415 39.8278 L 416 44.645 L 417 49.9283 L 418 55.7453 L 419 62.1634 L 420 69.2502 L 421 77.0678 L 422 85.4588 L 423 94.161 L 424 102.913 L 425 111.451 L 426 119.637 L 427 127.48 L 428 134.948 L 429 142.005 L 430 148.619 L 431 154.736 L 432 160.33 L 433 165.411 L 434 169.988 L 435 174.071 L 436 177.656 L 437 180.753 L 438 183.387 L 439 185.585 L 440 187.371 L 441 188.761 L 442 189.786 L 443 190.495 L 444 190.94 L 445 191.169 L 446 191.205 L 447 191.066 L 448 190.794 L 449 190.433 L 450 190.026 L 451 189.609 L 452 189.152 L 453 188.601 L 454 187.901 L 455 186.999 L 456 185.864 L 457 184.496 L 458 182.891 L 459 181.04 L 460 178.939 L 461 176.609 L 462 174.017 L 463 171.073 L 464 167.689 L 465 163.776 L 466 159.266 L 467 154.262 L 468 148.931 L 469 143.439 L 470 137.951 L 471 132.558 L 472 127.231 L 473 121.961 L 474 116.739 L 475 111.556 L 476 106.431 L 477 101.397 L 478 96.4659 L 479 91.6482 L 480 86.9554 L 481 82.395 L 482 77.9804 L 483 73.7309 L 484 69.6659 L 485 65.8046 L 486 62.161 L 487 58.727 L 488 55.4891 L 489 52.4339 L 490 49.5478 L 491 46.8253 L 492 44.2644 L 493 41.8572 L 494 39.5957 L 495 37.4719 L 496 35.4765 L 497 33.6023 L 498 31.8441 L 499 30.197 L 500 28.6559 L 501 27.219 L 502 25.872 L 503 24.5907 L 504 23.3508 L 505 22.1281 L 506 20.9076 L 507 19.6955 L 508 18.4996 L 509 17.3279 L 510 16.1882 L 511 15.0801 L 512 14.0038 L 513 12.9683 L 514 11.9824 L 515 11.0553 L 516 10.1908 L 517 9.38665 L 518 8.64264 L 519 7.9585 L 520 7.33396 L 521 6.77057 L 522 6.26349 L 523 5.80291 L 524 5.37899 L 525 4.98193 L 526 4.60643 L 527 4.2521 L 528 3.91636 L 529 3.59669 L 530 3.29052 L 531 2.99468 L 532 2.70861 L 533 2.43368 L 534 2.17127 L 535 1.92275 L 536 1.68805 L 537 1.46613 L 538 1.25691 L 539 1.06032 L 540 0.876279 L 541 0.704642 L 542 0.545054 L 543 0.397151 L 544 0.260565 L 545 0.134935 L 546 0.0199801 L 546.1 0 L 547 -0.0847981 L 548 -0.180094 L 549 -0.266602 L 550 -0.34502 L 551 -0.415832 L 552 -0.479407 L 553 -0.536156 L 554 -0.586484 L 555 -0.630794 L 556 -0.669434 L 557 -0.702801 L 558 -0.731354 L 559 -0.755547 L 560 -0.775832 L 561 -0.792584 L 562 -0.806022 L 563 -0.816263 L 564 -0.823423 L 565 -0.827617 L 566 -0.829063 L 567 -0.827964 L 568 -0.824412 L 569 -0.818503 L 570 -0.810328 L 571 -0.800038 L 572 -0.787858 L 573 -0.773996 L 574 -0.75866 L 575 -0.742058 L 576 -0.724304 L 577 -0.70563 L 578 -0.686416 L 579 -0.667044 L 580 -0.647897 L 581 -0.6292 L 582 -0.610901 L 583 -0.592973 L 584 -0.575385 L 585 -0.558109 L 586 -0.541335 L 587 -0.524944 L 588 -0.508448 L 589 -0.491356 L 590 -0.473179 L 591 -0.453542 L 592 -0.432885 L 593 -0.411938 L 594 -0.39143 L 595 -0.372091 L 596 -0.354342 L 597 -0.337881 L 598 -0.322358 L 599 -0.307423 L 600 -0.292724 L 601 -0.278067 L 602 -0.263682 L 603 -0.249865 L 604 -0.23691 L 605 -0.22511 L 606 -0.214681 L 607 -0.205332 L 608 -0.1966 L 609 -0.188019 L 610 -0.179123 L 611 -0.169668 L 612 -0.159871 L 613 -0.149966 L 614 -0.140186 L 615 -0.130765 L 616 -0.121745 L 617 -0.113087 L 618 -0.104903 L 619 -0.0973061 L 620 -0.0904098 L 621 -0.0843185 L 622 -0.0789376 L 623 -0.0740815 L 624 -0.0695642 L 625 -0.0652 L 626 -0.060899 L 627 -0.056713 L 628 -0.0526685 L 629 -0.0487923 L 630 -0.0451111 L 631 -0.0416156 L 632 -0.038284 L 633 -0.035124 L 634 -0.0321435 L 635 -0.0293498 L 636 -0.0267438 L 637 -0.0243191 L 638 -0.0220729 L 639 -0.0200024 L 640 -0.0181048 L 641 -0.0163748 L 642 -0.0148048 L 643 -0.0133897 L 644 -0.0121242 L 645 -0.0110027 L 646 -0.0100264 L 647 -0.00917682 L 648 -0.00842054 L 649 -0.00772388 L 650 -0.00705311 L 651 -0.00631311 L 652 -0.00564235 L 653 -0.0050361 L 654 -0.0044897 L 655 -0.0039985 L 656 -0.00355664 L 657 -0.00315961 L 658 -0.00280457 L 659 -0.00248875 L 660 -0.00220943 L 661 -0.00196356 L 662 -0.00174734 L 663 -0.00155654 L 664 -0.00138701 L 665 -0.00123464 L 666 -0.00109576 L 667 -0.00096951 L 668 -0.000855689 L 669 -0.00075407 L 670 -0.000664477 L 671 -0.000585934 L 672 -0.000516728 L 673 -0.000455527 L 674 -0.000401017 L 675 -0.000351899 L 676 -0.000307099 L 677 -0.00026631 L 678 -0.000229309 L 679 -0.000195884 L 680 -0.000165831 L 681 -0.000138607 L 682 -0.000113979 L 683 -0.000092162 L 684 -0.0000733358 L 685 -0.0000577205 L 686 -0.0000453571 L 687 -0.00003576 L 688 -0.0000283374 L 689 -0.0000225229 L 690 -0.0000177373 L 691 -0.0000136313 L 692 -0.0000102003 L 693 -0.00000738317 L 694 -0.00000511474 L 695 -0.00000332579 L 696 -0.0000018713 L 697 -0.000000659849 L 698 0 L 830 0"
    fill="none" stroke="blue" stroke-width="1.5" />
  <rect x="360" y="-60" width="470" height="300" fill="none" stroke="black" stroke-width="1.5" />
 </g>
 <text x="1130" y="140" font-size="45px" font-family="serif">r (λ)</text>
 <text x="1130" y="200" font-size="45px" font-family="serif">g (λ)</text>
 <text x="1130" y="260" font-size="45px" font-family="serif">b (λ)</text>
 <path d="M 1130 113 h 17 m -17 60 h 21 m -21 50 h 21" stroke="black" stroke-width="3" />
 <line x1="980" y1="125" x2="1110" y2="125" stroke="red" stroke-width="3.75" />
 <line x1="980" y1="185" x2="1110" y2="185" stroke="lime" stroke-width="3.75" />
 <line x1="980" y1="245" x2="1110" y2="245" stroke="blue" stroke-width="3.75" />
 <text x="35" y="45" font-size="45px" font-family="serif">0.40</text>
 <text x="35" y="186" font-size="45px" font-family="serif">0.30</text>
 <text x="35" y="336" font-size="45px" font-family="serif">0.20</text>
 <text x="35" y="486" font-size="45px" font-family="serif">0.10</text>
 <text x="35" y="636" font-size="45px" font-family="serif">0.00</text>
 <text x="10" y="770" font-size="45px" font-family="serif">−0.10</text>
 <text x="196" y="815" font-size="45px" font-family="serif">400</text>
 <text x="446" y="815" font-size="45px" font-family="serif">500</text>
 <text x="615" y="825" font-size="60px" font-family="serif">λ</text>
 <text x="696" y="815" font-size="45px" font-family="serif">600</text>
 <text x="946" y="815" font-size="45px" font-family="serif">700</text>
 <text x="1196" y="815" font-size="45px" font-family="serif">800</text>
</svg>