<?xml version="1.0" encoding="UTF-8" ?>
<!-- Generator: en.wikipedia.org/wiki/Module:Charts SVG -->
<svg id="head"
  xmlns="http://www.w3.org/2000/svg"
  xmlns:xlink="http://www.w3.org/1999/xlink"
  version="1.1"
  font-family="Liberation Sans, Arial, sans-serif"
  width="672"
  height="465"
>

<title>Luminosity</title>
<desc>
  Graph of photopic luminosity function (black) including CIE 1931 (solid), Judd-Vos modified (dashed), and Sharpe, Stockman, Jagla and Jagle 2005 (dotted); and scotopic luminosity function, CIE 1951 (green). An SVG version of the image at https://commons.wikimedia.org/wiki/File:Luminosity.png
</desc>

<metadata>
  <rdf:RDF
    xmlns:rdf = "http://www.w3.org/1999/02/22-rdf-syntax-ns#"
    xmlns:rdfs = "http://www.w3.org/2000/01/rdf-schema#"
    xmlns:dc = "http://purl.org/dc/elements/1.1/" >
    <rdf:Description
      dc:title="Luminosity"
      dc:description="Graph of photopic luminosity function (black) including CIE 1931 (solid), Judd-Vos modified (dashed), and Sharpe, Stockman, Jagla and Jagle 2005 (dotted); and scotopic luminosity function, CIE 1951 (green). An SVG version of the image at https://commons.wikimedia.org/wiki/File:Luminosity.png"
      dc:date="2016-11-26"
      dc:format="image/svg+xml"
      dc:language="en" >
    </rdf:Description>
  </rdf:RDF>
</metadata>

<!-- == Backgrounds == -->

<!-- image background -->
<rect id="imagebackground" x="0" y="0" width="672" height="465" stroke-width="1" stroke="none" fill="white"/>

<!-- == Graph Line Styles == -->

<style type="text/css"> <![CDATA[
  /*-- general style of graph lines --*/
  .series-lines-general {
    stroke-width:    1;
    stroke-linejoin: round;
    stroke-linecap:  round;
    fill:            none;
  }
  /*-- series 1 --*/
  .series1 {
    stroke:           #000;
    stroke-width:     1;
  }
  /*-- series 2 --*/
  .series2 {
    stroke:           #000;
    stroke-width:     1;
    stroke-dasharray: 8,8;
    stroke-linecap:   butt;
  }
  /*-- series 3 --*/
  .series3 {
    stroke:           #000;
    stroke-width:     1;
    stroke-dasharray: 2,2;
    stroke-linecap:   butt;
  }
  /*-- series 4 --*/
  .series4 {
    stroke:           #0f0;
    stroke-width:     1;
  }
]]>
</style>

<!-- == Graph Bars and Lines == -->

<g id="graphs" transform="scale(1, -1) translate(54, -426)">
  <!-- Scotopic CIE 1951 -->
  <!-- original data: not included -->
  <polyline id="graph4" class="series-lines-general series4"
    points="
    45, 0.2
    52.5, 0.4
    60, 0.8
    67.5, 1.7
    75, 3.5
    82.5, 7.1
    90, 13.3
    97.5, 23
    105, 36.8
    112.5, 54.7
    120, 76.1
    127.5, 100
    135, 125
    142.5, 149.8
    150, 173.3
    157.5, 195.4
    165, 216
    172.5, 236.2
    180, 257.5
    187.5, 279.6
    195, 302.1
    202.5, 324.2
    210, 344.4
    217.5, 361.5
    225, 374.1
    232.5, 380.2
    240, 379.8
    247.5, 371.4
    255, 356.2
    262.5, 335.2
    270, 309
    277.5, 279.2
    285, 247.6
    292.5, 214.9
    300, 183.2
    307.5, 153.1
    315, 125.3
    322.5, 100.5
    330, 79.1
    337.5, 61
    345, 46.2
    352.5, 34.2
    360, 25
    367.5, 17.9
    375, 12.6
    382.5, 8.8
    390, 6.1
    397.5, 4.1
    405, 2.8
    412.5, 1.9
    420, 1.3
    427.5, 0.9
    435, 0.6
    442.5, 0.4
    450, 0.3
    457.5, 0.2
    465, 0.1
    472.5, 0.1
    480, 0.1
    487.5, 0
    495, 0
    502.5, 0
    510, 0
    517.5, 0
    525, 0
    532.5, 0
    540, 0
    547.5, 0
    555, 0
    562.5, 0
    570, 0
    577.5, 0
    585, 0
    592.5, 0
    600, 0
  "/>
  <!-- Sharpe, Stockman, Jagla and Jagle 2005 -->
  <!-- original data: not included -->
  <polyline id="graph3" class="series-lines-general series3"
    points="
    60, 0.2
    67.5, 0.4
    75, 0.9
    82.5, 1.9
    90, 3.5
    97.5, 5.5
    105, 7.8
    112.5, 10.1
    120, 12.9
    127.5, 16.2
    135, 19.6
    142.5, 22.5
    150, 25.3
    157.5, 28.4
    165, 33.4
    172.5, 41.6
    180, 50.9
    187.5, 60.1
    195, 69.9
    202.5, 80.6
    210, 92.7
    217.5, 110.9
    225, 135.3
    232.5, 165.9
    240, 201.5
    247.5, 239.9
    255, 277.2
    262.5, 306.2
    270, 329.9
    277.5, 348.4
    285, 366
    292.5, 375.6
    300, 377.8
    307.5, 380.9
    315, 378.9
    322.5, 375.4
    330, 367.7
    337.5, 354.8
    345, 336.1
    352.5, 320.5
    360, 301.6
    367.5, 279.1
    375, 254.8
    382.5, 229.9
    390, 203.9
    397.5, 178.1
    405, 153.4
    412.5, 130.5
    420, 107.5
    427.5, 87
    435, 69.9
    442.5, 55.5
    450, 42.8
    457.5, 32.2
    465, 23.9
    472.5, 17.5
    480, 12.7
    487.5, 9.1
    495, 6.5
    502.5, 4.5
    510, 3.1
    517.5, 2.2
    525, 1.5
    532.5, 1
    540, 0.7
    547.5, 0.5
    555, 0.3
    562.5, 0.2
    570, 0.2
    577.5, 0.1
    585, 0.1
    592.5, 0.1
    600, 0
  "/>
  <!-- Judd Vos 1978 -->
  <!-- original data: not included -->
  <polyline id="graph2" class="series-lines-general series2"
    points="
    45, 0.1
    52.5, 0.2
    60, 0.3
    67.5, 0.6
    75, 1.1
    82.5, 1.8
    90, 2.8
    97.5, 4.5
    105, 6.7
    112.5, 8.6
    120, 10.4
    127.5, 12.4
    135, 14.4
    142.5, 16.1
    150, 17.8
    157.5, 19.9
    165, 22.9
    172.5, 27.8
    180, 34.7
    187.5, 43
    195, 53
    202.5, 64.7
    210, 79.2
    217.5, 98.3
    225, 123
    232.5, 154.4
    240, 191.6
    247.5, 231.7
    255, 270.5
    262.5, 302.9
    270, 328.4
    277.5, 348.6
    285, 363.4
    292.5, 373.3
    300, 379
    307.5, 381
    315, 379
    322.5, 372.9
    330, 362.7
    337.5, 348.8
    345, 331.4
    352.5, 310.9
    360, 288.4
    367.5, 264.7
    375, 240.4
    382.5, 215.8
    390, 191.6
    397.5, 168.3
    405, 145.1
    412.5, 122.1
    420, 101
    427.5, 82.7
    435, 66.7
    442.5, 52.6
    450, 40.8
    457.5, 31.1
    465, 23.2
    472.5, 16.9
    480, 12.2
    487.5, 8.9
    495, 6.5
    502.5, 4.5
    510, 3.1
    517.5, 2.2
    525, 1.6
    532.5, 1.1
    540, 0.8
    547.5, 0.6
    555, 0.4
    562.5, 0.3
    570, 0.2
    577.5, 0.1
    585, 0.1
    592.5, 0.1
    600, 0
  "/>
  <!-- CIE 1931 -->
  <!-- original data: not included -->
  <polyline id="graph1" class="series-lines-general series1"
    points="
    15, 0
    22.5, 0
    30, 0
    37.5, 0
    45, 0
    52.5, 0
    60, 0
    67.5, 0.1
    75, 0.2
    82.5, 0.2
    90, 0.5
    97.5, 0.8
    105, 1.5
    112.5, 2.8
    120, 4.4
    127.5, 6.4
    135, 8.8
    142.5, 11.4
    150, 14.5
    157.5, 18.3
    165, 22.9
    172.5, 28.2
    180, 34.7
    187.5, 42.9
    195, 53
    202.5, 64.5
    210, 79.2
    217.5, 98.5
    225, 123
    232.5, 155.2
    240, 191.6
    247.5, 231.7
    255, 270.5
    262.5, 302.2
    270, 328.4
    277.5, 348.5
    285, 363.4
    292.5, 373.4
    300, 379
    307.5, 381
    315, 379
    322.5, 372.8
    330, 362.7
    337.5, 348.7
    345, 331.4
    352.5, 311
    360, 288.4
    367.5, 264.7
    375, 240.4
    382.5, 215.9
    390, 191.6
    397.5, 168.1
    405, 145.1
    412.5, 122.3
    420, 101
    427.5, 82.7
    435, 66.7
    442.5, 52.6
    450, 40.8
    457.5, 31.1
    465, 23.2
    472.5, 17
    480, 12.2
    487.5, 8.8
    495, 6.5
    502.5, 4.5
    510, 3.1
    517.5, 2.2
    525, 1.6
    532.5, 1.1
    540, 0.8
    547.5, 0.6
    555, 0.4
    562.5, 0.3
    570, 0.2
    577.5, 0.1
    585, 0.1
    592.5, 0.1
    600, 0
  "/>
</g>

<!-- == Axis Styles == -->

<style type="text/css"> <![CDATA[
  .axisline-x {
    stroke:         black;
    stroke-width:   2;
    stroke-linecap: round;
  }
  .axisline-y {
    stroke:         black;
    stroke-width:   2;
    stroke-linecap: round;
  }
  .axisline-y2 {
    stroke:         black;
    stroke-width:   2;
    stroke-linecap: round;
  }
  .axismark-main {
    stroke:       black;
    stroke-width: 1;
  }
  .axismark-second {
    stroke:       black;
    stroke-width: 1;
  }
  .axistitle-x {
    font-size: 18px;
  }
  .axisnumber-x {
    font-size: 15px;
  }
  .axistitle-y {
    font-size: 18px;
  }
  .axisnumber-y {
    font-size: 15px;
  }
]]>
</style>

<!-- == Axis Marks == -->

<defs>
  <pattern id="x-axismark-main" x="-471" width="75" height="6" patternUnits="userSpaceOnUse">
    <line x1="0" y1="0" x2="0" y2="6" class="axismark-main"/>
  </pattern>
</defs>

<rect id="x-axismark" x="54" y="426" width="606" height="6" fill="url(#x-axismark-main)"/>

<defs>
  <pattern id="y-axismark-main" y="426" width="6" height="38.095" patternUnits="userSpaceOnUse">
    <line x1="0" y1="0" x2="6" y2="0" class="axismark-main"/>
  </pattern>
</defs>

<rect id="y-axismark" x="48" y="26" width="6" height="404" fill="url(#y-axismark-main)"/>

<!-- == Axis Lines == -->

<line id="x-axis" x1="54" y1="426" x2="654" y2="426" class="axisline-x"/>
<line id="y-axis" x1="54" y1="26" x2="54" y2="426" class="axisline-y"/>

<!-- == Axis Values == -->

<g id="x-axis-values" class="axisnumber-x" text-anchor="middle">
  <text x="54" y="447">350</text>
  <text x="129" y="447">400</text>
  <text x="204" y="447">450</text>
  <text x="279" y="447">500</text>
  <text x="354" y="447">550</text>
  <text x="429" y="447">600</text>
  <text x="504" y="447">650</text>
  <text x="579" y="447">700</text>
  <text x="654" y="447">750</text>
</g>

<g id="y-axis-values" class="axisnumber-y" text-anchor="end">
  <text x="42" y="431">0</text>
  <text x="42" y="392.9">0.1</text>
  <text x="42" y="354.81">0.2</text>
  <text x="42" y="316.71">0.3</text>
  <text x="42" y="278.62">0.4</text>
  <text x="42" y="240.52">0.5</text>
  <text x="42" y="202.43">0.6</text>
  <text x="42" y="164.33">0.7</text>
  <text x="42" y="126.24">0.8</text>
  <text x="42" y="88.14">0.9</text>
  <text x="42" y="50.05">1</text>
</g>


</svg>
