<svg xmlns="http://www.w3.org/2000/svg" viewBox="0 0 410 400"><g transform="matrix(134,0,0,134,205,143)"><path fill="#f00" d="M1 0A1 1 0 0 0-1 0"/><path fill="#0f0" d="M-1 0A1 1 0 0 0 0 1.73"/><path fill="#00f" d="M0 1.73A1 1 0 0 0 1 0"/><path fill="#ff0" d="M0 0A1 1 0 0 0-1 0 1 1 0 0 0-.5.87"/><path fill="#0ff" d="M-.5.87A1 1 0 0 0 0 1.73 1 1 0 0 0 .5.87"/><path fill="#f0f" d="M.5.87A1 1 0 0 0 1 0 1 1 0 0 0 0 0"/><path fill="#fff" d="M0 0A1 1 0 0 0-.5.87 1 1 0 0 0 .5.87 1 1 0 0 0 0 0"/></g><text font-size="60" fill="#eee" font-family="sans-serif"><tspan x="180" y="90">R</tspan><tspan x="60" y="310" fill="#888">G</tspan><tspan x="310" y="310">B</tspan></text></svg>
