<svg width="2820" height="1891" xmlns="http://www.w3.org/2000/svg" xmlns:xlink="http://www.w3.org/1999/xlink" xml:space="preserve" overflow="hidden"><g transform="translate(-790 -292)"><path d="M464.835 1859.34 464.835 154.945" stroke="#000000" stroke-width="18.5934" fill="none" transform="matrix(1 0 0 1.00035 790 292)"/><path d="M0 0 32.5385-32.5385-81.3462 0 32.5385 32.5385 0 0Z" stroke="#000000" stroke-width="6.50769" transform="matrix(6.12323e-17 1.00035 -1 6.12541e-17 1254.84 486.06)"/><path d="M154.945 1549.45 2634.07 1549.45" stroke="#000000" stroke-width="18.5934" fill="none" transform="matrix(1 0 0 1.00035 790 292)"/><path d="M0 0 32.5385-32.5385-81.3462 0 32.5385 32.5385 0 0Z" stroke="#000000" stroke-width="6.50769" transform="matrix(-1 1.22508e-16 -1.22465e-16 -1.00035 3385.02 1842)"/><path d="M464.835 464.835 2169.23 464.835" stroke="#000000" stroke-width="15.4945" stroke-dasharray="46.4835 46.4835" fill="none" transform="matrix(1 0 0 1.00035 790 292)"/><path d="M2169.23 464.835 2169.23 1549.45" stroke="#000000" stroke-width="15.4945" stroke-dasharray="46.4835 46.4835" fill="none" transform="matrix(1 0 0 1.00035 790 292)"/><path d="M2215.71 464.835C2215.71 490.507 2194.9 511.319 2169.23 511.319 2143.56 511.319 2122.75 490.507 2122.75 464.835 2122.75 439.163 2143.56 418.352 2169.23 418.352 2194.9 418.352 2215.71 439.163 2215.71 464.835Z" fill="#FF0000" transform="matrix(1 0 0 1.00035 790 292)"/><path d="M464.835 1549.45 2122.75 495.824" stroke="#0000DD" stroke-width="37.1868" stroke-linecap="round" transform="matrix(1 0 0 1.00035 790 292)"/><path d="M0 0 46.4883-46.4883-116.221 0 46.4883 46.4883 0 0Z" stroke="#0000DD" stroke-width="9.29765" fill="#0000DD" transform="matrix(-0.8439 0.536501 -0.53631 -0.844199 2865.67 817.929)"/><text font-family="Times New Roman,Times New Roman_MSFontService,sans-serif" font-style="italic" font-weight="400" font-size="14" transform="matrix(15.4945 0 0 15.5 913.956 524)">Im</text><text font-family="Times New Roman,Times New Roman_MSFontService,sans-serif" font-style="italic" font-weight="400" font-size="14" transform="matrix(15.4945 0 0 15.5 3284.62 2090)">Re</text><text font-family="Times New Roman,Times New Roman_MSFontService,sans-serif" font-style="italic" font-weight="400" font-size="14" transform="matrix(15.4945 0 0 15.5 1022.42 2090)">O</text><text font-family="Times New Roman,Times New Roman_MSFontService,sans-serif" font-style="italic" font-weight="400" font-size="14" transform="matrix(15.4945 0 0 15.5 2905 2044)">a</text><text font-family="Times New Roman,Times New Roman_MSFontService,sans-serif" font-style="italic" font-weight="400" font-size="14" transform="matrix(15.4945 0 0 15.5 1068.9 819)">b</text><text font-family="Times New Roman,Times New Roman_MSFontService,sans-serif" font-style="italic" font-weight="400" font-size="14" transform="matrix(15.4945 0 0 15.5 2843.02 648)">z</text><text font-family="Times New Roman,Times New Roman_MSFontService,sans-serif" font-style="italic" font-weight="400" font-size="14" transform="matrix(15.4945 0 0 15.5 2920.49 648)">=</text><text font-family="Times New Roman,Times New Roman_MSFontService,sans-serif" font-style="italic" font-weight="400" font-size="14" transform="matrix(15.4945 0 0 15.5 3059.95 648)">a</text><text font-family="Times New Roman,Times New Roman_MSFontService,sans-serif" font-style="italic" font-weight="400" font-size="14" transform="matrix(15.4945 0 0 15.5 3168.41 648)">+</text><text font-family="Times New Roman,Times New Roman_MSFontService,sans-serif" font-style="italic" font-weight="400" font-size="14" transform="matrix(15.4945 0 0 15.5 3307.86 648)">bi</text><path d="M1818.63 1398.56C1988.22 1519.28 2027.84 1754.62 1907.13 1924.21" stroke="#E97132" stroke-width="10.3125" stroke-miterlimit="8" fill="none" fill-rule="evenodd"/><path d="M1774.64 1706.69C1771.27 1722.23 1769.59 1735.3 1769.59 1745.9 1769.59 1753.92 1770.8 1759.81 1773.24 1763.57 1775.67 1767.33 1779.61 1769.21 1785.06 1769.21 1793.08 1769.21 1800.69 1763.82 1807.88 1753.04 1815.08 1742.26 1821.18 1726.81 1826.2 1706.69ZM1818.68 1634.28C1810.3 1634.28 1802.55 1639.58 1795.42 1650.18 1788.3 1660.78 1782.23 1675.96 1777.21 1695.73L1828.67 1695.73C1832.03 1680.62 1833.72 1667.62 1833.72 1656.74 1833.72 1649.22 1832.5 1643.59 1830.06 1639.87 1827.63 1636.15 1823.83 1634.28 1818.68 1634.28ZM1819.97 1625.58C1840.74 1625.58 1851.12 1638.76 1851.12 1665.11 1851.12 1672.56 1850.28 1681.46 1848.6 1691.81 1846.91 1702.16 1844.24 1712.7 1840.59 1723.44 1836.94 1734.19 1832.32 1743.69 1826.73 1751.97 1821.15 1760.24 1814.7 1766.63 1807.4 1771.14 1800.09 1775.65 1792.22 1777.91 1783.77 1777.91 1773.1 1777.91 1765.15 1774.65 1759.92 1768.13 1754.69 1761.62 1752.08 1751.84 1752.08 1738.81 1752.08 1731.72 1752.86 1722.98 1754.44 1712.6 1756.02 1702.21 1758.61 1691.59 1762.23 1680.74 1765.84 1669.89 1770.5 1660.26 1776.19 1651.85 1781.89 1643.43 1788.44 1636.95 1795.85 1632.4 1803.26 1627.86 1811.3 1625.58 1819.97 1625.58Z" fill="#E97132" fill-rule="evenodd"/><text fill="#000000" fill-opacity="0" font-family="Arial,Arial_MSFontService,sans-serif" font-size="152.324" x="1752.08" y="1758.87">ğœƒ</text></g></svg>